<svg width="389" height="96" viewBox="0 0 389 96" fill="none" xmlns="http://www.w3.org/2000/svg">
<g clip-path="url(#clip0_65_854)">
<path d="M33.9955 20C28.4024 20 23.0385 22.2218 19.0837 26.1767L6.17668 39.0837C2.22181 43.0385 0 48.4024 0 53.9955C0 65.6424 9.44165 75.084 21.0885 75.084C26.6816 75.084 32.0455 72.8621 36.0003 68.9072L44.9282 59.9794C44.9283 59.9796 44.9282 59.9792 44.9282 59.9794L70.9409 33.9667C72.8297 32.0779 75.3915 31.0168 78.0627 31.0168C82.5347 31.0168 86.3262 33.9315 87.6407 37.9649L95.8502 29.7553C92.105 23.8896 85.5381 20 78.0627 20C72.4696 20 67.1057 22.2218 63.1509 26.1767L28.2104 61.1173C26.3215 63.0061 23.7597 64.0672 21.0885 64.0672C15.5261 64.0672 11.0168 59.558 11.0168 53.9955C11.0168 51.3243 12.0779 48.7625 13.9667 46.8736L26.8736 33.9667C28.7625 32.0779 31.3243 31.0168 33.9955 31.0168C38.4677 31.0168 42.259 33.9316 43.5735 37.9651L51.7832 29.7555C48.038 23.8897 41.4711 20 33.9955 20Z" fill="#05A01E"/>
<path d="M72.2778 61.1173C70.3889 63.0061 67.8272 64.0672 65.1559 64.0672C60.6844 64.0672 56.8933 61.1533 55.5785 57.1206L47.3691 65.3299C51.1145 71.1949 57.681 75.084 65.1559 75.084C70.749 75.084 76.1129 72.8621 80.0677 68.9072L115.008 33.9667C116.897 32.0779 119.459 31.0168 122.13 31.0168C127.693 31.0168 132.202 35.5261 132.202 41.0885C132.202 43.7597 131.141 46.3215 129.252 48.2104L116.345 61.1173C114.456 63.0061 111.894 64.0672 109.223 64.0672C104.751 64.0672 100.96 61.1527 99.6453 57.1196L91.436 65.3292C95.1811 71.1947 101.748 75.084 109.223 75.084C114.816 75.084 120.18 72.8621 124.135 68.9072L137.042 56.0003C140.997 52.0455 143.219 46.6816 143.219 41.0885C143.219 29.4417 133.777 20 122.13 20C116.537 20 111.173 22.2218 107.218 26.1767L72.2778 61.1173Z" fill="#05A01E"/>
</g>
<path d="M209.348 29.7048V67H201.868V42.7421L191.876 67H186.212L176.167 42.7421V67H168.687V29.7048H177.182L189.044 57.4358L200.906 29.7048H209.348ZM218.4 33.8725C217.082 33.8725 215.978 33.4628 215.087 32.6436C214.233 31.7887 213.805 30.7378 213.805 29.4911C213.805 28.2444 214.233 27.2114 215.087 26.3921C215.978 25.5372 217.082 25.1097 218.4 25.1097C219.718 25.1097 220.805 25.5372 221.659 26.3921C222.55 27.2114 222.995 28.2444 222.995 29.4911C222.995 30.7378 222.55 31.7887 221.659 32.6436C220.805 33.4628 219.718 33.8725 218.4 33.8725ZM222.087 37.399V67H214.607V37.399H222.087ZM243.744 36.9715C247.27 36.9715 250.12 38.0936 252.293 40.3377C254.466 42.5462 255.552 45.6452 255.552 49.6348V67H248.072V50.65C248.072 48.299 247.484 46.5001 246.309 45.2534C245.133 43.971 243.53 43.3299 241.5 43.3299C239.434 43.3299 237.795 43.971 236.584 45.2534C235.408 46.5001 234.821 48.299 234.821 50.65V67H227.34V37.399H234.821V41.0857C235.818 39.8034 237.083 38.806 238.614 38.0936C240.182 37.3455 241.892 36.9715 243.744 36.9715ZM288.046 51.5583C288.046 52.6269 287.974 53.5887 287.832 54.4436H266.192C266.37 56.5809 267.118 58.255 268.436 59.4662C269.754 60.6773 271.375 61.2828 273.299 61.2828C276.077 61.2828 278.054 60.0895 279.229 57.7029H287.298C286.443 60.5526 284.804 62.9036 282.382 64.7559C279.96 66.5725 276.985 67.4809 273.459 67.4809C270.609 67.4809 268.044 66.8575 265.765 65.6108C263.521 64.3284 261.757 62.5296 260.475 60.2142C259.228 57.8988 258.605 55.2273 258.605 52.1995C258.605 49.1361 259.228 46.4467 260.475 44.1313C261.722 41.816 263.467 40.0349 265.711 38.7882C267.955 37.5414 270.538 36.9181 273.459 36.9181C276.273 36.9181 278.784 37.5236 280.993 38.7347C283.237 39.9459 284.964 41.6735 286.176 43.9176C287.422 46.1261 288.046 48.673 288.046 51.5583ZM280.298 49.421C280.262 47.4975 279.568 45.9658 278.214 44.8259C276.861 43.6504 275.204 43.0627 273.245 43.0627C271.393 43.0627 269.825 43.6326 268.543 44.7725C267.296 45.8768 266.531 47.4263 266.246 49.421H280.298ZM309.443 35.7426V45.0931H322V51.024H309.443V60.9088H323.603V67H301.963V29.6514H323.603V35.7426H309.443ZM326.34 52.1995C326.34 49.1361 326.963 46.4645 328.21 44.1848C329.457 41.8694 331.184 40.0883 333.393 38.8416C335.601 37.5593 338.13 36.9181 340.98 36.9181C344.649 36.9181 347.677 37.8442 350.063 39.6965C352.486 41.5132 354.106 44.0779 354.926 47.3906H346.857C346.43 46.1083 345.7 45.1109 344.667 44.3985C343.669 43.6504 342.423 43.2764 340.926 43.2764C338.789 43.2764 337.097 44.0601 335.851 45.6274C334.604 47.1591 333.98 49.3498 333.98 52.1995C333.98 55.0135 334.604 57.2042 335.851 58.7716C337.097 60.3033 338.789 61.0691 340.926 61.0691C343.954 61.0691 345.931 59.7155 346.857 57.0083H354.926C354.106 60.2142 352.486 62.7611 350.063 64.649C347.641 66.5369 344.613 67.4809 340.98 67.4809C338.13 67.4809 335.601 66.8575 333.393 65.6108C331.184 64.3284 329.457 62.5474 328.21 60.2676C326.963 57.9523 326.34 55.2629 326.34 52.1995ZM371.412 67.4809C368.563 67.4809 365.998 66.8575 363.718 65.6108C361.439 64.3284 359.64 62.5296 358.322 60.2142C357.039 57.8988 356.398 55.2273 356.398 52.1995C356.398 49.1717 357.057 46.5001 358.375 44.1848C359.729 41.8694 361.563 40.0883 363.879 38.8416C366.194 37.5593 368.777 36.9181 371.626 36.9181C374.476 36.9181 377.058 37.5593 379.374 38.8416C381.689 40.0883 383.506 41.8694 384.824 44.1848C386.177 46.5001 386.854 49.1717 386.854 52.1995C386.854 55.2273 386.16 57.8988 384.77 60.2142C383.417 62.5296 381.564 64.3284 379.213 65.6108C376.898 66.8575 374.298 67.4809 371.412 67.4809ZM371.412 60.9622C372.766 60.9622 374.031 60.6417 375.206 60.0005C376.417 59.3237 377.379 58.3263 378.091 57.0083C378.804 55.6903 379.16 54.0874 379.16 52.1995C379.16 49.3854 378.412 47.2304 376.916 45.7343C375.455 44.2026 373.657 43.4367 371.519 43.4367C369.382 43.4367 367.583 44.2026 366.123 45.7343C364.698 47.2304 363.986 49.3854 363.986 52.1995C363.986 55.0135 364.68 57.1864 366.069 58.7181C367.494 60.2142 369.275 60.9622 371.412 60.9622Z" fill="#101010"/>
<defs>
<clipPath id="clip0_65_854">
<rect width="143.218" height="55.084" fill="white" transform="translate(0 20)"/>
</clipPath>
</defs>
</svg>
